<svg width="140" height="140" viewBox="0 0 140 140" fill="none" xmlns="http://www.w3.org/2000/svg">
<path d="M100 0C122.091 0 140 17.9086 140 40V100C140 122.091 122.091 140 100 140H40C17.9086 140 9.66516e-07 122.091 0 100V40C0 17.9086 17.9086 9.66391e-07 40 0H100ZM38 33C35.2386 33 33 35.2386 33 38V102C33 104.761 35.2386 107 38 107H42C44.7614 107 47 104.761 47 102V38C47 35.2386 44.7614 33 42 33H38ZM68 33C65.2386 33 63 35.2386 63 38V102C63 104.761 65.2386 107 68 107H72C74.7614 107 77 104.761 77 102V38C77 35.2386 74.7614 33 72 33H68ZM98 33C95.2386 33 93 35.2386 93 38V102C93 104.761 95.2386 107 98 107H102C104.761 107 107 104.761 107 102V38C107 35.2386 104.761 33 102 33H98Z" fill="#71717A"/>
</svg>
