<svg width="140" height="140" viewBox="0 0 140 140" fill="none" xmlns="http://www.w3.org/2000/svg">
<path d="M123.975 0C136.471 1.0989e-06 144.144 13.6821 137.628 24.3438L109.724 70L137.628 115.656C144.144 126.318 136.471 140 123.975 140H16.0243C3.5298 139.999 -4.14348 126.318 2.37194 115.656L30.2743 70L2.37194 24.3438C-4.14344 13.6824 3.5298 0.000579859 16.0243 0H123.975ZM51.4188 40C47.0411 40.0001 44.1365 44.5372 45.9696 48.5127L55.1825 68.4902C55.4649 69.1027 55.7775 69.6844 56.1151 70.2363C55.7939 70.7608 55.497 71.3134 55.2255 71.8926L46.0526 91.4521C44.1869 95.4309 47.0908 99.9999 51.4852 100H87.9374C92.3319 100 95.2358 95.431 93.37 91.4521L84.1981 71.8926C83.9266 71.3135 83.6277 70.7617 83.3065 70.2373C83.6445 69.6849 83.9584 69.1033 84.2411 68.4902L93.454 48.5127C95.2872 44.5372 92.3826 40 88.0048 40H51.4188Z" fill="#F4AA41"/>
</svg>
