<svg width="140" height="140" viewBox="0 0 140 140" fill="none" xmlns="http://www.w3.org/2000/svg">
<path d="M61.3397 75C61.9964 76.1373 62.8705 77.1341 63.9124 77.9335C64.9542 78.733 66.1433 79.3194 67.4118 79.6593C68.6803 79.9991 70.0033 80.0859 71.3053 79.9145C72.6072 79.743 73.8627 79.3169 75 78.6603C76.1373 78.0036 77.1341 77.1295 77.9335 76.0876C78.733 75.0458 79.3194 73.8567 79.6593 72.5882C79.9991 71.3197 80.0859 69.9967 79.9145 68.6947C79.743 67.3928 79.3169 66.1373 78.6603 65L70 70L61.3397 75Z" fill="#2E2E2E"/>
<path fill-rule="evenodd" clip-rule="evenodd" d="M70.1719 0.000976562C70.2936 0.00127562 70.4154 0.00199543 70.5371 0.00292969C70.716 0.00427516 70.8947 0.00610418 71.0732 0.00878906C71.1628 0.0101619 71.2523 0.0119556 71.3418 0.0136719C71.5425 0.0174468 71.7431 0.0209059 71.9434 0.0263672C72.0511 0.0293603 72.1589 0.0336186 72.2666 0.0371094C72.4605 0.0432784 72.6542 0.0498744 72.8477 0.0576172C72.8682 0.0584524 72.8887 0.0596936 72.9092 0.0605469C89.6442 0.744808 104.864 7.30314 116.562 17.7305C116.607 17.7709 116.652 17.8119 116.697 17.8525C116.857 17.9954 117.016 18.1389 117.174 18.2832C117.258 18.3596 117.34 18.4369 117.424 18.5137C117.534 18.6156 117.645 18.7177 117.755 18.8203C117.855 18.914 117.955 19.0083 118.055 19.1025C118.151 19.1939 118.248 19.285 118.345 19.377C118.455 19.4825 118.565 19.589 118.675 19.6953C118.78 19.7967 118.884 19.898 118.988 20C119.089 20.0983 119.188 20.197 119.288 20.2959C119.358 20.3649 119.428 20.4336 119.497 20.5029L119.704 20.71C119.806 20.8123 119.906 20.9156 120.007 21.0186C120.045 21.058 120.084 21.0972 120.123 21.1367C120.469 21.4917 120.811 21.8507 121.149 22.2129C121.21 22.2773 121.27 22.3416 121.33 22.4062C121.45 22.5352 121.568 22.6651 121.687 22.7949C121.759 22.8742 121.831 22.9536 121.903 23.0332C122.011 23.1523 122.119 23.2717 122.226 23.3916C122.325 23.5027 122.424 23.6139 122.522 23.7256C122.595 23.8076 122.666 23.8903 122.738 23.9727C133.487 36.278 140 52.378 140 70C140 108.66 108.66 140 70 140C31.5675 140 0.368734 109.028 0.00292969 70.6816C0.00171251 70.5566 0.00152401 70.4316 0.000976562 70.3066C0.000538403 70.2045 0 70.1023 0 70C0 69.9329 0.000787976 69.8659 0.000976562 69.7988C0.00118432 69.7266 0.00152156 69.6543 0.00195312 69.582C0.105528 51.8678 6.7876 35.7128 17.7305 23.4375C17.7709 23.3921 17.8119 23.3471 17.8525 23.3018C17.9984 23.139 18.1447 22.9768 18.292 22.8154C18.3395 22.7634 18.3879 22.7121 18.4355 22.6602C18.5802 22.5027 18.7251 22.3456 18.8711 22.1895C18.9485 22.1067 19.0267 22.0248 19.1045 21.9424C19.2134 21.827 19.3219 21.7113 19.4316 21.5967C19.5033 21.5218 19.5755 21.4476 19.6475 21.373C19.7847 21.231 19.9221 21.0891 20.0605 20.9482C20.1094 20.8985 20.159 20.8494 20.208 20.7998C20.346 20.6601 20.4839 20.5203 20.623 20.3818C20.7165 20.2888 20.8113 20.197 20.9053 20.1045C21.0024 20.0089 21.0986 19.9124 21.1963 19.8174C21.3176 19.6994 21.4394 19.5819 21.5615 19.4648C21.6388 19.3908 21.7163 19.3169 21.7939 19.2432C21.9098 19.1331 22.0269 19.0243 22.1436 18.915C22.2657 18.8005 22.3878 18.6859 22.5107 18.5723C22.551 18.5351 22.5915 18.498 22.6318 18.4609C34.3674 7.66959 49.7981 0.835254 66.8096 0.0722656C66.8519 0.0703348 66.8942 0.0682601 66.9365 0.0664062C67.1511 0.0571669 67.366 0.049295 67.5811 0.0419922C67.6693 0.038942 67.7575 0.0359194 67.8457 0.0332031C68.0564 0.0268351 68.2673 0.0211032 68.4785 0.0166016C68.5804 0.0143865 68.6823 0.012512 68.7842 0.0107422C68.9322 0.0082226 69.0803 0.0064824 69.2285 0.00488281C69.4037 0.00295259 69.5788 0.00159209 69.7539 0.000976562C69.8357 0.000695471 69.9181 0 70 0C70.0573 3.91181e-07 70.1146 0.000838515 70.1719 0.000976562ZM70 70L44.041 84.9873C49.2233 93.9438 58.9081 99.9697 70 99.9697C86.5516 99.9695 99.9688 86.5516 99.9688 70C99.9688 64.5401 98.5089 59.4214 95.958 55.0127L70 70Z" fill="#EF4343"/>
</svg>
