<svg width="31" height="31" viewBox="0 0 31 31" fill="none" xmlns="http://www.w3.org/2000/svg">
<circle cx="15.5" cy="15.5" r="15.5" fill="#EDEDED"/>
<path d="M18.8028 16.2917L9.95831 16.2917C9.52109 16.2917 9.16665 15.9372 9.16665 15.5V15.5C9.16665 15.0628 9.52109 14.7083 9.95831 14.7083L18.8028 14.7083L15.116 11.0216C14.8069 10.7124 14.8069 10.2113 15.116 9.90213V9.90213C15.4251 9.59302 15.9263 9.59302 16.2354 9.90213L21.0301 14.6968C21.4737 15.1404 21.4737 15.8596 21.0301 16.3032L16.2354 21.0979C15.9263 21.407 15.4251 21.407 15.116 21.0979V21.0979C14.8069 20.7888 14.8069 20.2876 15.116 19.9785L18.8028 16.2917Z" fill="black"/>
</svg>
