<svg width="23" height="23" viewBox="0 0 23 23" fill="none" xmlns="http://www.w3.org/2000/svg">
<path d="M13 4.45833C13 7.51891 15.4811 10 18.5417 10H21C21.8284 10 22.5 10.6716 22.5 11.5C22.5 12.3284 21.8284 13 21 13H18.5417C15.4811 13 13 15.4811 13 18.5417V21C13 21.8284 12.3284 22.5 11.5 22.5C10.6716 22.5 10 21.8284 10 21V18.5417C10 15.4811 7.51891 13 4.45833 13H2C1.17157 13 0.5 12.3284 0.5 11.5C0.5 10.6716 1.17157 10 2 10H4.45833C7.51891 10 10 7.51891 10 4.45833V2C10 1.17157 10.6716 0.5 11.5 0.5C12.3284 0.5 13 1.17157 13 2V4.45833Z" fill="#17A34A"/>
</svg>
