<svg width="197" height="38" viewBox="0 0 197 38" fill="none" xmlns="http://www.w3.org/2000/svg">
<path d="M12.6484 1.18469C14.9673 -0.39477 18.0326 -0.394949 20.3516 1.18447L30.0625 7.79782C32.9065 9.73467 33.8259 13.4736 32.1985 16.4846L22.4878 34.4516C19.9307 39.1828 13.0692 39.1828 10.5122 34.4516L0.801529 16.4848C-0.825885 13.4736 0.0934755 9.73467 2.93755 7.79782L12.6484 1.18469ZM16.519 11.1236C14.3944 11.1236 12.6721 12.8261 12.6721 14.9259C12.6721 16.2831 13.3915 17.4736 14.4738 18.1466L12.905 20.9033C12.396 21.7979 13.05 22.9033 14.0884 22.9033H18.9496C19.988 22.9033 20.642 21.7979 20.133 20.9033L18.564 18.1466C19.6463 17.4739 20.3659 16.2831 20.3659 14.9259C20.3659 12.8261 18.6436 11.1236 16.519 11.1236Z" fill="#17A34A"/>
<path d="M57.1282 28H53.6126L60.0135 9.81818H64.0795L70.4893 28H66.9737L62.1175 13.5469H61.9755L57.1282 28ZM57.2436 20.8711H66.8317V23.5167H57.2436V20.8711ZM78.364 28.2663C76.9968 28.2663 75.8161 27.9822 74.8217 27.4141C73.8333 26.84 73.0728 26.0291 72.5401 24.9815C72.0075 23.928 71.7411 22.6881 71.7411 21.2617C71.7411 19.859 72.0075 18.628 72.5401 17.5685C73.0787 16.5032 73.8304 15.6746 74.7951 15.0827C75.7598 14.485 76.8932 14.1861 78.1953 14.1861C79.0357 14.1861 79.8288 14.3222 80.5746 14.5945C81.3262 14.8608 81.9891 15.2751 82.5632 15.8374C83.1432 16.3996 83.599 17.1158 83.9304 17.9858C84.2618 18.8499 84.4276 19.8797 84.4276 21.0753V22.0607H73.2504V19.8945H81.3469C81.341 19.279 81.2079 18.7315 80.9474 18.2521C80.687 17.7668 80.323 17.3851 79.8555 17.1069C79.3938 16.8287 78.8552 16.6896 78.2397 16.6896C77.5827 16.6896 77.0057 16.8494 76.5085 17.169C76.0114 17.4827 75.6237 17.897 75.3455 18.4119C75.0733 18.9209 74.9342 19.4802 74.9283 20.0898V21.9808C74.9283 22.7739 75.0733 23.4545 75.3633 24.0227C75.6533 24.585 76.0587 25.017 76.5795 25.3189C77.1004 25.6148 77.71 25.7628 78.4084 25.7628C78.8759 25.7628 79.2991 25.6977 79.6779 25.5675C80.0567 25.4313 80.3852 25.2331 80.6634 24.9727C80.9415 24.7122 81.1516 24.3897 81.2937 24.005L84.2944 24.3423C84.105 25.1354 83.744 25.8279 83.2113 26.4197C82.6845 27.0057 82.0098 27.4614 81.1871 27.7869C80.3645 28.1065 79.4234 28.2663 78.364 28.2663ZM93.0768 33.3977C91.9227 33.3977 90.9313 33.2409 90.1027 32.9272C89.2741 32.6194 88.6083 32.2051 88.1052 31.6843C87.6021 31.1635 87.2529 30.5864 87.0576 29.9531L89.9518 29.2518C90.082 29.5181 90.2714 29.7815 90.52 30.0419C90.7686 30.3082 91.103 30.5272 91.5232 30.6989C91.9493 30.8764 92.4849 30.9652 93.1301 30.9652C94.0415 30.9652 94.7961 30.7433 95.3939 30.2994C95.9917 29.8614 96.2906 29.1393 96.2906 28.1332V25.5497H96.1308C95.9651 25.8812 95.7224 26.2215 95.4028 26.5707C95.0891 26.9199 94.6718 27.2128 94.151 27.4496C93.6361 27.6863 92.988 27.8047 92.2068 27.8047C91.1592 27.8047 90.2093 27.5591 89.357 27.0678C88.5106 26.5707 87.8359 25.8308 87.3328 24.8484C86.8357 23.86 86.5871 22.623 86.5871 21.1374C86.5871 19.64 86.8357 18.3764 87.3328 17.3466C87.8359 16.3108 88.5136 15.5266 89.3659 14.994C90.2181 14.4554 91.1681 14.1861 92.2156 14.1861C93.0146 14.1861 93.6716 14.3222 94.1865 14.5945C94.7074 14.8608 95.1217 15.1834 95.4294 15.5621C95.7372 15.935 95.971 16.2872 96.1308 16.6186H96.3083V14.3636H99.4777V28.2219C99.4777 29.3879 99.1995 30.3526 98.6432 31.1161C98.0869 31.8796 97.3263 32.4508 96.3616 32.8295C95.3969 33.2083 94.3019 33.3977 93.0768 33.3977ZM93.1034 25.2834C93.7841 25.2834 94.3641 25.1177 94.8435 24.7862C95.3229 24.4548 95.6869 23.9783 95.9355 23.3569C96.184 22.7354 96.3083 21.9897 96.3083 21.1197C96.3083 20.2615 96.184 19.5098 95.9355 18.8647C95.6928 18.2196 95.3318 17.7195 94.8524 17.3643C94.3789 17.0033 93.7959 16.8228 93.1034 16.8228C92.3873 16.8228 91.7895 17.0092 91.3101 17.3821C90.8307 17.755 90.4697 18.2669 90.227 18.918C89.9843 19.5631 89.863 20.297 89.863 21.1197C89.863 21.9542 89.9843 22.6851 90.227 23.3125C90.4756 23.9339 90.8396 24.4193 91.319 24.7685C91.8043 25.1117 92.3991 25.2834 93.1034 25.2834ZM102.771 28V14.3636H105.985V28H102.771ZM104.387 12.4283C103.878 12.4283 103.44 12.2596 103.073 11.9222C102.706 11.579 102.523 11.1676 102.523 10.6882C102.523 10.2029 102.706 9.79155 103.073 9.45419C103.44 9.11091 103.878 8.93928 104.387 8.93928C104.902 8.93928 105.34 9.11091 105.701 9.45419C106.068 9.79155 106.252 10.2029 106.252 10.6882C106.252 11.1676 106.068 11.579 105.701 11.9222C105.34 12.2596 104.902 12.4283 104.387 12.4283ZM120.068 17.968L117.138 18.2876C117.055 17.9917 116.91 17.7135 116.703 17.4531C116.502 17.1927 116.229 16.9826 115.886 16.8228C115.543 16.663 115.123 16.5831 114.626 16.5831C113.957 16.5831 113.394 16.7281 112.939 17.0181C112.489 17.3081 112.267 17.6839 112.273 18.1456C112.267 18.5421 112.412 18.8647 112.708 19.1133C113.01 19.3619 113.507 19.5661 114.199 19.7259L116.525 20.223C117.816 20.5012 118.774 20.9421 119.402 21.5458C120.035 22.1495 120.355 22.9396 120.361 23.9162C120.355 24.7744 120.103 25.532 119.606 26.1889C119.115 26.84 118.431 27.349 117.555 27.7159C116.679 28.0829 115.673 28.2663 114.537 28.2663C112.868 28.2663 111.524 27.9171 110.506 27.2188C109.488 26.5144 108.882 25.5349 108.686 24.2802L111.82 23.9783C111.962 24.5939 112.264 25.0585 112.726 25.3722C113.187 25.6858 113.788 25.8427 114.528 25.8427C115.291 25.8427 115.904 25.6858 116.366 25.3722C116.833 25.0585 117.067 24.6708 117.067 24.2092C117.067 23.8185 116.916 23.496 116.614 23.2415C116.318 22.987 115.857 22.7917 115.229 22.6555L112.903 22.1673C111.595 21.895 110.628 21.4363 110 20.7912C109.373 20.1402 109.062 19.3175 109.068 18.3232C109.062 17.4827 109.29 16.7547 109.752 16.1392C110.219 15.5178 110.867 15.0384 111.696 14.701C112.53 14.3577 113.492 14.1861 114.581 14.1861C116.179 14.1861 117.437 14.5264 118.354 15.207C119.278 15.8877 119.849 16.808 120.068 17.968ZM129.354 28V9.81818H141.002V12.5792H132.648V17.5153H140.203V20.2763H132.648V28H129.354ZM148.807 28.2663C147.476 28.2663 146.322 27.9734 145.345 27.3874C144.369 26.8015 143.611 25.9818 143.072 24.9283C142.54 23.8748 142.273 22.6437 142.273 21.2351C142.273 19.8265 142.54 18.5924 143.072 17.533C143.611 16.4736 144.369 15.6509 145.345 15.065C146.322 14.479 147.476 14.1861 148.807 14.1861C150.139 14.1861 151.293 14.479 152.27 15.065C153.246 15.6509 154.001 16.4736 154.534 17.533C155.072 18.5924 155.342 19.8265 155.342 21.2351C155.342 22.6437 155.072 23.8748 154.534 24.9283C154.001 25.9818 153.246 26.8015 152.27 27.3874C151.293 27.9734 150.139 28.2663 148.807 28.2663ZM148.825 25.6918C149.547 25.6918 150.151 25.4935 150.636 25.0969C151.122 24.6945 151.483 24.1559 151.719 23.4812C151.962 22.8065 152.083 22.0548 152.083 21.2262C152.083 20.3917 151.962 19.6371 151.719 18.9624C151.483 18.2817 151.122 17.7402 150.636 17.3377C150.151 16.9353 149.547 16.734 148.825 16.734C148.085 16.734 147.47 16.9353 146.979 17.3377C146.493 17.7402 146.129 18.2817 145.887 18.9624C145.65 19.6371 145.532 20.3917 145.532 21.2262C145.532 22.0548 145.65 22.8065 145.887 23.4812C146.129 24.1559 146.493 24.6945 146.979 25.0969C147.47 25.4935 148.085 25.6918 148.825 25.6918ZM158.069 28V14.3636H161.185V16.6364H161.327C161.576 15.8492 162.002 15.2425 162.606 14.8164C163.215 14.3844 163.911 14.1683 164.692 14.1683C164.87 14.1683 165.068 14.1772 165.287 14.195C165.512 14.2068 165.698 14.2275 165.846 14.2571V17.2134C165.71 17.1661 165.494 17.1246 165.198 17.0891C164.908 17.0477 164.627 17.027 164.355 17.027C163.769 17.027 163.242 17.1542 162.775 17.4087C162.313 17.6573 161.949 18.0036 161.683 18.4474C161.416 18.8913 161.283 19.4033 161.283 19.9833V28H158.069ZM173.35 33.3977C172.196 33.3977 171.205 33.2409 170.376 32.9272C169.548 32.6194 168.882 32.2051 168.379 31.6843C167.876 31.1635 167.526 30.5864 167.331 29.9531L170.225 29.2518C170.355 29.5181 170.545 29.7815 170.793 30.0419C171.042 30.3082 171.376 30.5272 171.797 30.6989C172.223 30.8764 172.758 30.9652 173.403 30.9652C174.315 30.9652 175.07 30.7433 175.667 30.2994C176.265 29.8614 176.564 29.1393 176.564 28.1332V25.5497H176.404C176.238 25.8812 175.996 26.2215 175.676 26.5707C175.363 26.9199 174.945 27.2128 174.424 27.4496C173.91 27.6863 173.261 27.8047 172.48 27.8047C171.433 27.8047 170.483 27.5591 169.63 27.0678C168.784 26.5707 168.109 25.8308 167.606 24.8484C167.109 23.86 166.861 22.623 166.861 21.1374C166.861 19.64 167.109 18.3764 167.606 17.3466C168.109 16.3108 168.787 15.5266 169.639 14.994C170.492 14.4554 171.441 14.1861 172.489 14.1861C173.288 14.1861 173.945 14.3222 174.46 14.5945C174.981 14.8608 175.395 15.1834 175.703 15.5621C176.011 15.935 176.244 16.2872 176.404 16.6186H176.582V14.3636H179.751V28.2219C179.751 29.3879 179.473 30.3526 178.917 31.1161C178.36 31.8796 177.6 32.4508 176.635 32.8295C175.67 33.2083 174.575 33.3977 173.35 33.3977ZM173.377 25.2834C174.057 25.2834 174.638 25.1177 175.117 24.7862C175.596 24.4548 175.96 23.9783 176.209 23.3569C176.457 22.7354 176.582 21.9897 176.582 21.1197C176.582 20.2615 176.457 19.5098 176.209 18.8647C175.966 18.2196 175.605 17.7195 175.126 17.3643C174.652 17.0033 174.069 16.8228 173.377 16.8228C172.661 16.8228 172.063 17.0092 171.584 17.3821C171.104 17.755 170.743 18.2669 170.5 18.918C170.258 19.5631 170.136 20.297 170.136 21.1197C170.136 21.9542 170.258 22.6851 170.5 23.3125C170.749 23.9339 171.113 24.4193 171.592 24.7685C172.078 25.1117 172.673 25.2834 173.377 25.2834ZM189.082 28.2663C187.715 28.2663 186.534 27.9822 185.54 27.4141C184.551 26.84 183.791 26.0291 183.258 24.9815C182.725 23.928 182.459 22.6881 182.459 21.2617C182.459 19.859 182.725 18.628 183.258 17.5685C183.796 16.5032 184.548 15.6746 185.513 15.0827C186.478 14.485 187.611 14.1861 188.913 14.1861C189.754 14.1861 190.547 14.3222 191.292 14.5945C192.044 14.8608 192.707 15.2751 193.281 15.8374C193.861 16.3996 194.317 17.1158 194.648 17.9858C194.98 18.8499 195.145 19.8797 195.145 21.0753V22.0607H183.968V19.8945H192.065C192.059 19.279 191.926 18.7315 191.665 18.2521C191.405 17.7668 191.041 17.3851 190.573 17.1069C190.112 16.8287 189.573 16.6896 188.957 16.6896C188.301 16.6896 187.723 16.8494 187.226 17.169C186.729 17.4827 186.341 17.897 186.063 18.4119C185.791 18.9209 185.652 19.4802 185.646 20.0898V21.9808C185.646 22.7739 185.791 23.4545 186.081 24.0227C186.371 24.585 186.776 25.017 187.297 25.3189C187.818 25.6148 188.428 25.7628 189.126 25.7628C189.594 25.7628 190.017 25.6977 190.396 25.5675C190.774 25.4313 191.103 25.2331 191.381 24.9727C191.659 24.7122 191.869 24.3897 192.011 24.005L195.012 24.3423C194.823 25.1354 194.462 25.8279 193.929 26.4197C193.402 27.0057 192.728 27.4614 191.905 27.7869C191.082 28.1065 190.141 28.2663 189.082 28.2663Z" fill="#262626"/>
</svg>
